<mxfile host="65bd71144e">
    <diagram id="-ClA-WMYVmvCno057Tzb" name="Page-1">
        <mxGraphModel dx="1315" dy="1439" grid="1" gridSize="10" guides="1" tooltips="1" connect="1" arrows="1" fold="1" page="1" pageScale="1" pageWidth="850" pageHeight="1100" math="0" shadow="0">
            <root>
                <mxCell id="0"/>
                <mxCell id="1" parent="0"/>
                <mxCell id="58" value="" style="group" parent="1" vertex="1" connectable="0">
                    <mxGeometry x="100" y="210.00000000000006" width="460" height="200" as="geometry"/>
                </mxCell>
                <mxCell id="59" value="" style="rounded=0;whiteSpace=wrap;html=1;dashed=1;labelBackgroundColor=none;fillColor=none;" parent="58" vertex="1">
                    <mxGeometry width="460.00000000000006" height="200" as="geometry"/>
                </mxCell>
                <mxCell id="60" value="MAS" style="text;html=1;strokeColor=none;fillColor=none;align=center;verticalAlign=middle;whiteSpace=wrap;rounded=0;dashed=1;labelBackgroundColor=none;movable=1;resizable=1;rotatable=1;deletable=1;editable=1;connectable=1;" parent="58" vertex="1">
                    <mxGeometry width="38.333333333333336" height="23.076923076923073" as="geometry"/>
                </mxCell>
                <mxCell id="112" value="Predikční&lt;div&gt;agent&lt;/div&gt;" style="verticalLabelPosition=bottom;verticalAlign=top;html=1;shape=mxgraph.basic.layered_rect;dx=10;outlineConnect=0;whiteSpace=wrap;spacing=0;spacingTop=-53;spacingBottom=0;spacingRight=10;" vertex="1" parent="58">
                    <mxGeometry x="350" y="9.999999999999943" width="100" height="60" as="geometry"/>
                </mxCell>
                <mxCell id="39" value="Hlavní agent" style="rounded=0;whiteSpace=wrap;html=1;" parent="58" vertex="1">
                    <mxGeometry x="200" y="75" width="80" height="50" as="geometry"/>
                </mxCell>
                <mxCell id="56" style="edgeStyle=none;html=1;exitX=0;exitY=0;exitDx=0;exitDy=37.5;entryX=1;entryY=0.25;entryDx=0;entryDy=0;startArrow=none;startFill=0;endArrow=classic;endFill=1;exitPerimeter=0;" parent="58" source="112" target="39" edge="1">
                    <mxGeometry relative="1" as="geometry">
                        <mxPoint x="360" y="47.49999999999994" as="sourcePoint"/>
                    </mxGeometry>
                </mxCell>
                <mxCell id="57" value="Predikce" style="edgeLabel;html=1;align=center;verticalAlign=middle;resizable=0;points=[];labelBackgroundColor=none;" parent="56" vertex="1" connectable="0">
                    <mxGeometry x="-0.1452" y="2" relative="1" as="geometry">
                        <mxPoint x="4" y="14" as="offset"/>
                    </mxGeometry>
                </mxCell>
                <mxCell id="54" style="edgeStyle=none;html=1;exitX=0.75;exitY=0;exitDx=0;exitDy=0;entryX=0;entryY=0;entryDx=0;entryDy=12.5;startArrow=none;startFill=0;endArrow=classic;endFill=1;entryPerimeter=0;" parent="58" source="39" target="112" edge="1">
                    <mxGeometry relative="1" as="geometry">
                        <mxPoint x="360" y="22.50000000000017" as="targetPoint"/>
                    </mxGeometry>
                </mxCell>
                <mxCell id="55" value="Nový stav" style="edgeLabel;html=1;align=center;verticalAlign=middle;resizable=0;points=[];labelBackgroundColor=none;" parent="54" vertex="1" connectable="0">
                    <mxGeometry x="0.2607" y="1" relative="1" as="geometry">
                        <mxPoint x="-36" y="-6" as="offset"/>
                    </mxGeometry>
                </mxCell>
                <mxCell id="113" value="Uživatelský&lt;div&gt;agent&lt;/div&gt;" style="verticalLabelPosition=bottom;verticalAlign=top;html=1;shape=mxgraph.basic.layered_rect;dx=10;outlineConnect=0;whiteSpace=wrap;spacing=0;spacingTop=-53;spacingBottom=0;spacingRight=10;" vertex="1" parent="58">
                    <mxGeometry x="350" y="124.99999999999994" width="100" height="60" as="geometry"/>
                </mxCell>
                <mxCell id="48" style="edgeStyle=none;html=1;exitX=1;exitY=0.75;exitDx=0;exitDy=0;entryX=-0.006;entryY=0.263;entryDx=0;entryDy=0;startArrow=none;startFill=0;endArrow=classic;endFill=1;entryPerimeter=0;" parent="58" source="39" target="113" edge="1">
                    <mxGeometry relative="1" as="geometry">
                        <mxPoint x="290" y="200" as="sourcePoint"/>
                        <mxPoint x="360" y="142.49999999999994" as="targetPoint"/>
                    </mxGeometry>
                </mxCell>
                <mxCell id="49" value="Predikce" style="edgeLabel;html=1;align=center;verticalAlign=middle;resizable=0;points=[];labelBackgroundColor=none;" parent="48" vertex="1" connectable="0">
                    <mxGeometry x="-0.3553" y="1" relative="1" as="geometry">
                        <mxPoint x="22" y="-10" as="offset"/>
                    </mxGeometry>
                </mxCell>
                <mxCell id="50" style="edgeStyle=none;html=1;exitX=0;exitY=0;exitDx=0;exitDy=37.5;entryX=0.75;entryY=1;entryDx=0;entryDy=0;startArrow=none;startFill=0;endArrow=classic;endFill=1;exitPerimeter=0;" parent="58" source="113" target="39" edge="1">
                    <mxGeometry relative="1" as="geometry">
                        <mxPoint x="321.0400000000002" y="199.69999999999993" as="targetPoint"/>
                        <mxPoint x="360" y="167.49999999999994" as="sourcePoint"/>
                    </mxGeometry>
                </mxCell>
                <mxCell id="51" value="Akce" style="edgeLabel;html=1;align=center;verticalAlign=middle;resizable=0;points=[];labelBackgroundColor=none;" parent="50" vertex="1" connectable="0">
                    <mxGeometry x="0.2284" y="-2" relative="1" as="geometry">
                        <mxPoint x="-5" y="17" as="offset"/>
                    </mxGeometry>
                </mxCell>
                <mxCell id="35" style="edgeStyle=none;html=1;exitX=0.5;exitY=1;exitDx=0;exitDy=0;endArrow=classic;endFill=1;startArrow=classic;startFill=1;entryX=0.5;entryY=0;entryDx=0;entryDy=0;" parent="1" source="111" target="38" edge="1">
                    <mxGeometry relative="1" as="geometry">
                        <mxPoint x="110" y="340" as="targetPoint"/>
                        <mxPoint x="730" y="-60" as="sourcePoint"/>
                    </mxGeometry>
                </mxCell>
                <mxCell id="36" value="&lt;i&gt;TCP kanál&lt;/i&gt;" style="edgeLabel;html=1;align=center;verticalAlign=middle;resizable=0;points=[];labelBackgroundColor=none;" parent="35" vertex="1" connectable="0">
                    <mxGeometry x="-0.2315" y="-2" relative="1" as="geometry">
                        <mxPoint x="-28" y="-10" as="offset"/>
                    </mxGeometry>
                </mxCell>
                <mxCell id="37" value="Zprávy rozhraní" style="edgeLabel;html=1;align=center;verticalAlign=middle;resizable=0;points=[];labelBackgroundColor=none;" parent="35" vertex="1" connectable="0">
                    <mxGeometry x="-0.1012" relative="1" as="geometry">
                        <mxPoint x="50" y="-16" as="offset"/>
                    </mxGeometry>
                </mxCell>
                <mxCell id="40" style="edgeStyle=none;html=1;exitX=1;exitY=0.5;exitDx=0;exitDy=0;entryX=0;entryY=0.5;entryDx=0;entryDy=0;startArrow=classic;startFill=1;endArrow=classic;endFill=1;" parent="1" source="38" target="39" edge="1">
                    <mxGeometry relative="1" as="geometry"/>
                </mxCell>
                <mxCell id="41" value="Zprávy rozhraní" style="edgeLabel;html=1;align=center;verticalAlign=middle;resizable=0;points=[];labelBackgroundColor=none;" parent="40" vertex="1" connectable="0">
                    <mxGeometry x="0.2039" relative="1" as="geometry">
                        <mxPoint x="-10" y="-20" as="offset"/>
                    </mxGeometry>
                </mxCell>
                <mxCell id="38" value="TCP agent" style="rounded=0;whiteSpace=wrap;html=1;" parent="1" vertex="1">
                    <mxGeometry x="130" y="285.00000000000006" width="80" height="50" as="geometry"/>
                </mxCell>
                <mxCell id="65" style="edgeStyle=none;html=1;entryX=0;entryY=0.5;entryDx=0;entryDy=0;startArrow=classic;startFill=1;endArrow=none;endFill=0;" parent="1" source="62" target="59" edge="1">
                    <mxGeometry relative="1" as="geometry">
                        <Array as="points">
                            <mxPoint x="40" y="310.00000000000006"/>
                        </Array>
                    </mxGeometry>
                </mxCell>
                <mxCell id="66" value="get_time()" style="edgeLabel;html=1;align=center;verticalAlign=middle;resizable=0;points=[];labelBackgroundColor=none;" parent="65" vertex="1" connectable="0">
                    <mxGeometry x="-0.1087" y="1" relative="1" as="geometry">
                        <mxPoint x="29" y="-14" as="offset"/>
                    </mxGeometry>
                </mxCell>
                <mxCell id="62" value="Aktuální čas&lt;br&gt;(sdílená paměť)" style="text;html=1;strokeColor=none;fillColor=none;align=center;verticalAlign=middle;whiteSpace=wrap;rounded=0;dashed=1;labelBackgroundColor=none;" parent="1" vertex="1">
                    <mxGeometry x="-14.999999999999972" y="170.00000000000003" width="110" height="30" as="geometry"/>
                </mxCell>
                <mxCell id="63" style="edgeStyle=none;html=1;entryX=0.5;entryY=0;entryDx=0;entryDy=0;startArrow=none;startFill=0;endArrow=classic;endFill=1;exitX=0;exitY=0.5;exitDx=0;exitDy=0;" parent="1" source="111" target="62" edge="1">
                    <mxGeometry relative="1" as="geometry">
                        <Array as="points">
                            <mxPoint x="40" y="25"/>
                        </Array>
                        <mxPoint x="-228.75" y="257.66" as="sourcePoint"/>
                    </mxGeometry>
                </mxCell>
                <mxCell id="64" value="Aktualizace&lt;br&gt;simulačního času" style="edgeLabel;html=1;align=center;verticalAlign=middle;resizable=0;points=[];labelBackgroundColor=none;" parent="63" vertex="1" connectable="0">
                    <mxGeometry x="-0.2791" relative="1" as="geometry">
                        <mxPoint x="45" y="69" as="offset"/>
                    </mxGeometry>
                </mxCell>
                <mxCell id="89" value="" style="rounded=0;whiteSpace=wrap;html=1;dashed=1;labelBackgroundColor=none;fillColor=none;" parent="1" vertex="1">
                    <mxGeometry x="70" y="-190" width="490" height="260" as="geometry"/>
                </mxCell>
                <mxCell id="90" value="Simulace" style="text;html=1;strokeColor=none;fillColor=none;align=center;verticalAlign=middle;whiteSpace=wrap;rounded=0;dashed=1;labelBackgroundColor=none;movable=1;resizable=1;rotatable=1;deletable=1;editable=1;connectable=1;" parent="1" vertex="1">
                    <mxGeometry x="70" y="-190" width="70" height="30" as="geometry"/>
                </mxCell>
                <mxCell id="91" style="edgeStyle=none;html=1;exitX=0.5;exitY=1;exitDx=0;exitDy=0;entryX=0;entryY=0;entryDx=45;entryDy=0;dashed=1;endArrow=classic;endFill=1;entryPerimeter=0;" parent="1" source="93" target="109" edge="1">
                    <mxGeometry relative="1" as="geometry">
                        <mxPoint x="490" y="-10" as="targetPoint"/>
                    </mxGeometry>
                </mxCell>
                <mxCell id="92" value="Všechny&lt;div&gt;události&lt;/div&gt;" style="edgeLabel;html=1;align=center;verticalAlign=middle;resizable=0;points=[];labelBackgroundColor=none;" parent="91" vertex="1" connectable="0">
                    <mxGeometry x="-0.201" y="2" relative="1" as="geometry">
                        <mxPoint x="28" as="offset"/>
                    </mxGeometry>
                </mxCell>
                <mxCell id="93" value="Event handler" style="rounded=0;whiteSpace=wrap;html=1;" parent="1" vertex="1">
                    <mxGeometry x="450" y="-120" width="80" height="50" as="geometry"/>
                </mxCell>
                <mxCell id="94" style="edgeStyle=none;html=1;exitX=0;exitY=0;exitDx=100;exitDy=22.5;entryX=0;entryY=0;entryDx=0;entryDy=25;endArrow=classic;endFill=1;exitPerimeter=0;entryPerimeter=0;" parent="1" source="98" target="99" edge="1">
                    <mxGeometry relative="1" as="geometry">
                        <mxPoint x="250" y="-135.0000000000001" as="targetPoint"/>
                    </mxGeometry>
                </mxCell>
                <mxCell id="95" value="Vstoupit&lt;br&gt;do místnosti" style="edgeLabel;html=1;align=center;verticalAlign=middle;resizable=0;points=[];labelBackgroundColor=none;" parent="94" vertex="1" connectable="0">
                    <mxGeometry x="-0.2167" relative="1" as="geometry">
                        <mxPoint x="-10" y="-25" as="offset"/>
                    </mxGeometry>
                </mxCell>
                <mxCell id="96" style="edgeStyle=none;html=1;exitX=0;exitY=0;exitDx=100;exitDy=47.5;entryX=0;entryY=0;entryDx=0;entryDy=25;endArrow=classic;endFill=1;exitPerimeter=0;entryPerimeter=0;" parent="1" source="98" target="102" edge="1">
                    <mxGeometry relative="1" as="geometry">
                        <mxPoint x="250" y="-55.000000000000114" as="targetPoint"/>
                    </mxGeometry>
                </mxCell>
                <mxCell id="97" value="Vypnout/Zapnout" style="edgeLabel;html=1;align=center;verticalAlign=middle;resizable=0;points=[];labelBackgroundColor=none;" parent="96" vertex="1" connectable="0">
                    <mxGeometry x="-0.3507" y="-1" relative="1" as="geometry">
                        <mxPoint x="-6" y="21" as="offset"/>
                    </mxGeometry>
                </mxCell>
                <mxCell id="98" value="Uživatel" style="verticalLabelPosition=bottom;verticalAlign=top;html=1;shape=mxgraph.basic.layered_rect;dx=10;outlineConnect=0;whiteSpace=wrap;spacing=0;spacingTop=-53;spacingBottom=0;spacingRight=10;" parent="1" vertex="1">
                    <mxGeometry x="85" y="-125" width="100" height="60" as="geometry"/>
                </mxCell>
                <mxCell id="99" value="Místnost" style="verticalLabelPosition=bottom;verticalAlign=top;html=1;shape=mxgraph.basic.layered_rect;dx=10;outlineConnect=0;whiteSpace=wrap;spacing=0;spacingTop=-53;spacingBottom=0;spacingRight=10;" parent="1" vertex="1">
                    <mxGeometry x="250" y="-170" width="100" height="60" as="geometry"/>
                </mxCell>
                <mxCell id="100" style="edgeStyle=none;html=1;exitX=0.889;exitY=0.454;exitDx=0;exitDy=0;entryX=0;entryY=0.25;entryDx=0;entryDy=0;dashed=1;exitPerimeter=0;" parent="1" source="99" target="93" edge="1">
                    <mxGeometry relative="1" as="geometry">
                        <mxPoint x="330" y="-147.5000000000001" as="sourcePoint"/>
                    </mxGeometry>
                </mxCell>
                <mxCell id="101" value="Uživatel X vstopil&lt;div&gt;do místnosti Y&lt;/div&gt;" style="edgeLabel;html=1;align=center;verticalAlign=middle;resizable=0;points=[];labelBackgroundColor=none;" parent="100" vertex="1" connectable="0">
                    <mxGeometry x="-0.3583" relative="1" as="geometry">
                        <mxPoint x="33" y="-15" as="offset"/>
                    </mxGeometry>
                </mxCell>
                <mxCell id="102" value="Chytré zařízení" style="verticalLabelPosition=bottom;verticalAlign=top;html=1;shape=mxgraph.basic.layered_rect;dx=10;outlineConnect=0;whiteSpace=wrap;spacing=0;spacingTop=-53;spacingBottom=0;spacingRight=10;" parent="1" vertex="1">
                    <mxGeometry x="250" y="-80" width="100" height="60" as="geometry"/>
                </mxCell>
                <mxCell id="103" style="edgeStyle=none;html=1;exitX=0.896;exitY=0.477;exitDx=0;exitDy=0;entryX=0;entryY=0.75;entryDx=0;entryDy=0;dashed=1;exitPerimeter=0;" parent="1" source="102" target="93" edge="1">
                    <mxGeometry relative="1" as="geometry">
                        <mxPoint x="330" y="-42.500000000000114" as="sourcePoint"/>
                    </mxGeometry>
                </mxCell>
                <mxCell id="104" value="Uživatel X&lt;div&gt;zapnul/vypnul&amp;nbsp;&lt;span style=&quot;&quot;&gt;zařízení Y&lt;/span&gt;&lt;/div&gt;" style="edgeLabel;html=1;align=center;verticalAlign=middle;resizable=0;points=[];labelBackgroundColor=none;" parent="103" vertex="1" connectable="0">
                    <mxGeometry x="-0.2943" y="-2" relative="1" as="geometry">
                        <mxPoint x="36" y="10" as="offset"/>
                    </mxGeometry>
                </mxCell>
                <mxCell id="105" value="" style="group" parent="1" vertex="1" connectable="0">
                    <mxGeometry x="470" y="95" width="70" height="90" as="geometry"/>
                </mxCell>
                <mxCell id="106" value="" style="shape=note;whiteSpace=wrap;html=1;backgroundOutline=1;darkOpacity=0.05;labelBackgroundColor=none;" parent="105" vertex="1">
                    <mxGeometry x="10" y="10" width="60" height="80" as="geometry"/>
                </mxCell>
                <mxCell id="107" value="" style="shape=note;whiteSpace=wrap;html=1;backgroundOutline=1;darkOpacity=0.05;labelBackgroundColor=none;" parent="105" vertex="1">
                    <mxGeometry x="5" y="5" width="60" height="80" as="geometry"/>
                </mxCell>
                <mxCell id="108" value="&lt;br&gt;&lt;br&gt;Trénovací data" style="shape=note;whiteSpace=wrap;html=1;backgroundOutline=1;darkOpacity=0.05;labelBackgroundColor=none;" parent="105" vertex="1">
                    <mxGeometry width="60" height="80" as="geometry"/>
                </mxCell>
                <mxCell id="109" value="&lt;span style=&quot;color: rgb(0, 0, 0);&quot;&gt;Zaznamenávání pro&lt;/span&gt;&lt;div&gt;uživatele X&lt;/div&gt;" style="verticalLabelPosition=bottom;verticalAlign=top;html=1;shape=mxgraph.basic.layered_rect;dx=10;outlineConnect=0;whiteSpace=wrap;spacing=0;spacingTop=-59;spacingBottom=0;spacingRight=10;" parent="1" vertex="1">
                    <mxGeometry x="445" y="-10" width="100" height="60" as="geometry"/>
                </mxCell>
                <mxCell id="110" style="edgeStyle=none;html=1;exitX=0.5;exitY=1;exitDx=0;exitDy=0;entryX=0;entryY=0;entryDx=20;entryDy=0;entryPerimeter=0;endArrow=classic;endFill=1;" parent="1" target="108" edge="1">
                    <mxGeometry relative="1" as="geometry">
                        <mxPoint x="490" y="40" as="sourcePoint"/>
                    </mxGeometry>
                </mxCell>
                <mxCell id="111" value="Simulační proces komunikující s MAS" style="rounded=0;whiteSpace=wrap;html=1;" parent="1" vertex="1">
                    <mxGeometry x="120" width="100" height="50" as="geometry"/>
                </mxCell>
                <mxCell id="115" style="edgeStyle=none;html=1;exitX=1;exitY=0.5;exitDx=0;exitDy=0;entryX=0;entryY=0;entryDx=55;entryDy=60;entryPerimeter=0;" edge="1" parent="1" source="111" target="102">
                    <mxGeometry relative="1" as="geometry">
                        <Array as="points">
                            <mxPoint x="305" y="25"/>
                        </Array>
                    </mxGeometry>
                </mxCell>
                <mxCell id="116" value="Vypnout/Zapnout" style="edgeLabel;html=1;align=center;verticalAlign=middle;resizable=0;points=[];labelBackgroundColor=none;" vertex="1" connectable="0" parent="115">
                    <mxGeometry x="-0.4174" y="-1" relative="1" as="geometry">
                        <mxPoint x="22" y="14" as="offset"/>
                    </mxGeometry>
                </mxCell>
            </root>
        </mxGraphModel>
    </diagram>
</mxfile>